{
  "accessors": [
    {
      "bufferView": 2,
      "componentType": 5126,
      "count": 1847,
      "max": [
        34.249862670898438,
        89.935501098632812,
        2.1779999732971191
      ],
      "min": [
        25.449863433837891,
        87.460502624511719,
        -2.1779999732971191
      ],
      "type": "VEC3"
    },
    {
      "bufferView": 2,
      "byteOffset": 22164,
      "componentType": 5126,
      "count": 1847,
      "max": [
        1,
        1,
        1
      ],
      "min": [
        -1,
        -1,
        -1
      ],
      "type": "VEC3"
    },
    {
      "bufferView": 1,
      "componentType": 5126,
      "count": 1847,
      "max": [
        7.6999998092651367,
        11.164999961853027
      ],
      "min": [
        -8.9375,
        -5.273341178894043
      ],
      "type": "VEC2"
    },
    {
      "bufferView": 0,
      "componentType": 5125,
      "count": 8124,
      "max": [
        1846
      ],
      "min": [
        0
      ],
      "type": "SCALAR"
    },
    {
      "bufferView": 2,
      "byteOffset": 44328,
      "componentType": 5126,
      "count": 880,
      "max": [
        25.449863433837891,
        91.5,
        1.1000000238418579
      ],
      "min": [
        -1.1000000238418579,
        82.5,
        -1.1000000238418579
      ],
      "type": "VEC3"
    },
    {
      "bufferView": 2,
      "byteOffset": 54888,
      "componentType": 5126,
      "count": 880,
      "max": [
        1,
        1,
        1
      ],
      "min": [
        -1,
        -1,
        -1
      ],
      "type": "VEC3"
    },
    {
      "bufferView": 1,
      "byteOffset": 14776,
      "componentType": 5126,
      "count": 880,
      "max": [
        11.4183349609375,
        3.2843856811523438
      ],
      "min": [
        -14.074864387512207,
        -7.1545548439025879
      ],
      "type": "VEC2"
    },
    {
      "bufferView": 0,
      "byteOffset": 32496,
      "componentType": 5125,
      "count": 3462,
      "max": [
        879
      ],
      "min": [
        0
      ],
      "type": "SCALAR"
    },
    {
      "bufferView": 2,
      "byteOffset": 65448,
      "componentType": 5126,
      "count": 716,
      "max": [
        1.5,
        82.5,
        1.5
      ],
      "min": [
        -1.5,
        0,
        -1.5
      ],
      "type": "VEC3"
    },
    {
      "bufferView": 2,
      "byteOffset": 74040,
      "componentType": 5126,
      "count": 716,
      "max": [
        1,
        1,
        1
      ],
      "min": [
        -1,
        -1,
        -1
      ],
      "type": "VEC3"
    },
    {
      "bufferView": 1,
      "byteOffset": 21816,
      "componentType": 5126,
      "count": 716,
      "max": [
        44,
        6
      ],
      "min": [
        -19.5,
        -4.2427196502685547
      ],
      "type": "VEC2"
    },
    {
      "bufferView": 0,
      "byteOffset": 46344,
      "componentType": 5125,
      "count": 2634,
      "max": [
        715
      ],
      "min": [
        0
      ],
      "type": "SCALAR"
    },
    {
      "bufferView": 2,
      "byteOffset": 82632,
      "componentType": 5126,
      "count": 491,
      "max": [
        33.057651519775391,
        87.635498046875,
        1.7535382509231567
      ],
      "min": [
        28.242620468139648,
        87.135498046875,
        -1.7535382509231567
      ],
      "type": "VEC3"
    },
    {
      "bufferView": 2,
      "byteOffset": 88524,
      "componentType": 5126,
      "count": 491,
      "max": [
        1,
        1,
        1
      ],
      "min": [
        -1,
        -1,
        -1
      ],
      "type": "VEC3"
    },
    {
      "bufferView": 1,
      "byteOffset": 27544,
      "componentType": 5126,
      "count": 491,
      "max": [
        3.7595634460449219,
        3.7040982246398926
      ],
      "min": [
        -2.462979793548584,
        -1.5761988162994385
      ],
      "type": "VEC2"
    },
    {
      "bufferView": 0,
      "byteOffset": 56880,
      "componentType": 5125,
      "count": 2262,
      "max": [
        490
      ],
      "min": [
        0
      ],
      "type": "SCALAR"
    },
    {
      "bufferView": 2,
      "byteOffset": 94416,
      "componentType": 5126,
      "count": 887,
      "max": [
        1,
        16.489999771118164,
        -0.80000001192092896
      ],
      "min": [
        -1,
        10.989999771118164,
        -1.5
      ],
      "type": "VEC3"
    },
    {
      "bufferView": 2,
      "byteOffset": 105060,
      "componentType": 5126,
      "count": 887,
      "max": [
        1,
        1,
        1
      ],
      "min": [
        -1,
        -1,
        -1
      ],
      "type": "VEC3"
    },
    {
      "bufferView": 1,
      "byteOffset": 31472,
      "componentType": 5126,
      "count": 887,
      "max": [
        4.4970002174377441,
        3.9500000476837158
      ],
      "min": [
        -3.9495155811309814,
        -1.5500001907348633
      ],
      "type": "VEC2"
    },
    {
      "bufferView": 0,
      "byteOffset": 65928,
      "componentType": 5125,
      "count": 3852,
      "max": [
        886
      ],
      "min": [
        0
      ],
      "type": "SCALAR"
    }
  ],
  "asset": {
    "extras": {
      "author": "businessyuen (https://sketchfab.com/businessyuen)",
      "license": "CC-BY-4.0 (http://creativecommons.org/licenses/by/4.0/)",
      "source": "https://sketchfab.com/3d-models/hong-kong-street-light-7f276127f1f0413ba1ebeca923797d31",
      "title": "Hong Kong Street Light"
    },
    "generator": "Sketchfab-7.78.0",
    "version": "2.0"
  },
  "bufferViews": [
    {
      "buffer": 0,
      "byteLength": 81336,
      "byteOffset": 0,
      "name": "floatBufferViews",
      "target": 34963
    },
    {
      "buffer": 0,
      "byteLength": 38568,
      "byteOffset": 81336,
      "byteStride": 8,
      "name": "floatBufferViews",
      "target": 34962
    },
    {
      "buffer": 0,
      "byteLength": 115704,
      "byteOffset": 119904,
      "byteStride": 12,
      "name": "floatBufferViews",
      "target": 34962
    }
  ],
  "buffers": [
    {
      "byteLength": 235608,
      "uri": "lampada.bin"
    }
  ],
  "materials": [
    {
      "doubleSided": true,
      "emissiveFactor": [
        0,
        0,
        0
      ],
      "name": "Steel_-_Satin",
      "pbrMetallicRoughness": {
        "baseColorFactor": [
          0.92549000000000003,
          0.92549000000000003,
          0.92549000000000003,
          1
        ],
        "metallicFactor": 0,
        "roughnessFactor": 0.95770514946237739
      }
    },
    {
      "doubleSided": true,
      "emissiveFactor": [
        0,
        0,
        0
      ],
      "name": "Steel_-_Satin_0",
      "pbrMetallicRoughness": {
        "baseColorFactor": [
          0.95294100000000004,
          0.94901999999999997,
          0.94901999999999997,
          1
        ],
        "metallicFactor": 0,
        "roughnessFactor": 0.95770514946237739
      }
    },
    {
      "doubleSided": true,
      "emissiveFactor": [
        0,
        0,
        0
      ],
      "name": "Glass_Bronze",
      "pbrMetallicRoughness": {
        "baseColorFactor": [
          0.62745099999999998,
          0.48627500000000001,
          0.34902,
          1
        ],
        "metallicFactor": 0,
        "roughnessFactor": 0.95770514946237739
      }
    }
  ],
  "meshes": [
    {
      "name": "Body1_Steel - Satin_0",
      "primitives": [
        {
          "attributes": {
            "NORMAL": 1,
            "POSITION": 0,
            "TEXCOORD_0": 2
          },
          "indices": 3,
          "material": 0,
          "mode": 4
        }
      ]
    },
    {
      "name": "Body7_Steel - Satin_0",
      "primitives": [
        {
          "attributes": {
            "NORMAL": 5,
            "POSITION": 4,
            "TEXCOORD_0": 6
          },
          "indices": 7,
          "material": 0,
          "mode": 4
        }
      ]
    },
    {
      "name": "Body8_Steel - Satin_0",
      "primitives": [
        {
          "attributes": {
            "NORMAL": 9,
            "POSITION": 8,
            "TEXCOORD_0": 10
          },
          "indices": 11,
          "material": 1,
          "mode": 4
        }
      ]
    },
    {
      "name": "Body9_Glass (Bronze)_0",
      "primitives": [
        {
          "attributes": {
            "NORMAL": 13,
            "POSITION": 12,
            "TEXCOORD_0": 14
          },
          "indices": 15,
          "material": 2,
          "mode": 4
        }
      ]
    },
    {
      "name": "Body12_Steel - Satin_0",
      "primitives": [
        {
          "attributes": {
            "NORMAL": 17,
            "POSITION": 16,
            "TEXCOORD_0": 18
          },
          "indices": 19,
          "material": 1,
          "mode": 4
        }
      ]
    }
  ],
  "nodes": [
    {
      "children": [
        1
      ],
      "name": "RootNode (gltf orientation matrix)",
      "rotation": [
        -0.70710678118654746,
        -0,
        -0,
        0.70710678118654757
      ]
    },
    {
      "children": [
        2
      ],
      "name": "RootNode (model correction matrix)"
    },
    {
      "children": [
        3
      ],
      "matrix": [
        1,
        0,
        0,
        0,
        0,
        0,
        1,
        0,
        0,
        -1,
        0,
        0,
        0,
        0,
        0,
        1
      ],
      "name": "dc670355be7d4ad0aaca0fed324c07d4.fbx"
    },
    {
      "children": [
        4
      ],
      "name": "RootNode"
    },
    {
      "children": [
        5,
        7,
        9,
        11,
        13
      ],
      "name": "light v7"
    },
    {
      "children": [
        6
      ],
      "matrix": [
        10,
        0,
        0,
        0,
        0,
        10,
        0,
        0,
        0,
        0,
        10,
        0,
        0,
        0,
        0,
        1
      ],
      "name": "Body1"
    },
    {
      "mesh": 0,
      "name": "Body1_Steel - Satin_0"
    },
    {
      "children": [
        8
      ],
      "matrix": [
        10,
        0,
        0,
        0,
        0,
        10,
        0,
        0,
        0,
        0,
        10,
        0,
        0,
        0,
        0,
        1
      ],
      "name": "Body7"
    },
    {
      "mesh": 1,
      "name": "Body7_Steel - Satin_0"
    },
    {
      "children": [
        10
      ],
      "matrix": [
        10,
        0,
        0,
        0,
        0,
        10,
        0,
        0,
        0,
        0,
        10,
        0,
        0,
        0,
        0,
        1
      ],
      "name": "Body8"
    },
    {
      "mesh": 2,
      "name": "Body8_Steel - Satin_0"
    },
    {
      "children": [
        12
      ],
      "matrix": [
        10,
        0,
        0,
        0,
        0,
        10,
        0,
        0,
        0,
        0,
        10,
        0,
        0,
        0,
        0,
        1
      ],
      "name": "Body9"
    },
    {
      "mesh": 3,
      "name": "Body9_Glass (Bronze)_0"
    },
    {
      "children": [
        14
      ],
      "matrix": [
        10,
        0,
        0,
        0,
        0,
        10,
        0,
        0,
        0,
        0,
        10,
        0,
        0,
        0,
        0,
        1
      ],
      "name": "Body12"
    },
    {
      "mesh": 4,
      "name": "Body12_Steel - Satin_0"
    }
  ],
  "scene": 0,
  "scenes": [
    {
      "name": "OSG_Scene",
      "nodes": [
        0
      ]
    }
  ]
}

